/* XPM */
static char *rcp00292861988519[] = {
/* columns rows colors chars-per-pixel */
"48 70 226 2 ",
"   c #030101",
".  c #0C0202",
"X  c #0B0A05",
"o  c #09070A",
"O  c #0D0B0B",
"+  c #110404",
"@  c #120B02",
"#  c #12060A",
"$  c #140D0D",
"%  c #190E0C",
"&  c #1A0500",
"*  c #0E130F",
"=  c #161004",
"-  c #1A1400",
";  c #19110E",
":  c #19170A",
">  c #130F10",
",  c #0D1110",
"<  c #151213",
"1  c #1B1414",
"2  c #1A1915",
"3  c #1A171A",
"4  c #1D1A1B",
"5  c #151617",
"6  c #250100",
"7  c #2B0200",
"8  c #260D02",
"9  c #310500",
"0  c #330D01",
"q  c #261305",
"w  c #2B1202",
"e  c #231C0A",
"r  c #25140C",
"t  c #351101",
"y  c #331A02",
"u  c #35190E",
"i  c #211614",
"p  c #211A14",
"a  c #2C1C16",
"s  c #231D1C",
"d  c #2C1D1C",
"f  c #241716",
"g  c #311C14",
"h  c #3A1C12",
"j  c #301F18",
"k  c #1C201F",
"l  c #25210E",
"z  c #34230B",
"x  c #2B2313",
"c  c #25211D",
"v  c #2C231E",
"b  c #2B2819",
"n  c #302114",
"m  c #3A2312",
"M  c #332A16",
"N  c #34221B",
"B  c #332C1D",
"V  c #3D2919",
"C  c #3C321B",
"Z  c #251F21",
"A  c #291F20",
"S  c #1F2022",
"D  c #252222",
"F  c #2B2424",
"G  c #2C2925",
"H  c #2C2729",
"J  c #2D2A2A",
"K  c #322524",
"L  c #342A23",
"P  c #3B2B23",
"I  c #302728",
"U  c #332C2C",
"Y  c #3B2D2B",
"T  c #3A3323",
"R  c #35322D",
"E  c #3C332C",
"W  c #3E3B2A",
"Q  c #2D2B30",
"!  c #342E31",
"~  c #382F33",
"^  c #3A2F38",
"/  c #2C3031",
"(  c #353233",
")  c #3B3434",
"_  c #3D3A34",
"`  c #3C3339",
"'  c #3E3A3B",
"]  c #373B3A",
"[  c #412B19",
"{  c #462818",
"}  c #46321D",
"|  c #512A1B",
" . c #422F24",
".. c #402D29",
"X. c #532D20",
"o. c #45352D",
"O. c #4A322A",
"+. c #423B2D",
"@. c #463225",
"#. c #543929",
"$. c #443C34",
"%. c #4B3931",
"&. c #41363C",
"*. c #433C3C",
"=. c #493B3A",
"-. c #403634",
";. c #573D34",
":. c #633D32",
">. c #5A442D",
",. c #45423F",
"<. c #4B453B",
"1. c #4A4635",
"2. c #544334",
"3. c #574839",
"4. c #64443B",
"5. c #784D39",
"6. c #6F533B",
"7. c #785338",
"8. c #433E41",
"9. c #493F43",
"0. c #444142",
"q. c #4A4343",
"w. c #4D4A44",
"e. c #4E484A",
"r. c #524A44",
"t. c #554947",
"y. c #575347",
"u. c #5A5758",
"i. c #554E55",
"p. c #685643",
"a. c #785D49",
"s. c #645E5C",
"d. c #675752",
"f. c #664D46",
"g. c #6C644F",
"h. c #7F604C",
"j. c #766857",
"k. c #76705A",
"l. c #5F6160",
"z. c #7A6D66",
"x. c #7B7665",
"c. c #737273",
"v. c #7C7877",
"b. c #626763",
"n. c #81583C",
"m. c #845950",
"M. c #846445",
"N. c #866947",
"B. c #8A6855",
"V. c #997859",
"C. c #8B7465",
"Z. c #827A68",
"A. c #897B78",
"S. c #927F71",
"D. c #9A7E66",
"F. c #A17A6B",
"G. c #89836D",
"H. c #9D8F7D",
"J. c #A4896B",
"K. c #A58E7E",
"L. c #B6917F",
"P. c #B09075",
"I. c #C39C7D",
"U. c #7D8180",
"Y. c #8A8988",
"T. c #988C8A",
"R. c #9E9694",
"E. c #B59B8B",
"W. c #A79996",
"Q. c #AD8D86",
"!. c #BDA49C",
"~. c #BCA088",
"^. c #A7A4A2",
"/. c #B4AAA7",
"(. c #ACB1AD",
"). c #BEB7A4",
"_. c #BCADB0",
"`. c #B9B4B1",
"'. c #C19B8A",
"]. c #C8A998",
"[. c #D8B59B",
"{. c #C6B69C",
"}. c #D3B8AF",
"|. c #E5BFAA",
" X c #DFC3AD",
".X c #DDC0B0",
"XX c #DCD3BE",
"oX c #C8C0AB",
"OX c #E4C3AE",
"+X c #E7C7B9",
"@X c #E3C8B3",
"#X c #E3D2B7",
"$X c #CDBFC4",
"%X c #DDD7C7",
"&X c #DAD9D8",
"*X c #D8CACA",
"=X c #E9D5C7",
"-X c #F7D8C4",
";X c #EBDBD7",
":X c #FFDDD1",
">X c #EFE8CE",
",X c #FEE9CE",
"<X c #E5E1DD",
"1X c #E9E2D2",
"2X c #F8EBDC",
"3X c #E5E4E4",
"4X c #EBEBE6",
"5X c #E9E7EA",
"6X c #EDECEC",
"7X c #ECE7E3",
"8X c #F1EDEC",
"9X c #F8EDE7",
"0X c #EEF0EF",
"qX c #FEF1E5",
"wX c #F3F1ED",
"eX c #FDF4ED",
"rX c #FFFCEE",
"tX c #EEEEF1",
"yX c #F1EFF2",
"uX c #F5F4F4",
"iX c #FAF5F5",
"pX c #FEFBF4",
"aX c #F7F6F9",
"sX c #FBF6F9",
"dX c #FEFFFE",
"fX c #F7FAF9",
/* pixels */
"dXdXdXdXdXdXdXdXdXdXdXdXdXdXdXdXdXdXdXdXdXdXdXdXdXdXdXdXdXdXdXdXdXdXdXdXdXdXdXdXdXdXdXdXdXdXdXdX",
"dXdXdXdXdXdXdXdXdXdXdXdXdXdXdXdXdXdXdXdXdXdXdXdXdXdXdXdXdXdXdXdXdXdXdXdXdXdXdXdXdXdXdXdXdXdXdXdX",
"dXdXdXdXdXdXdXdXdXdXdXdXdXdXdXdXdXdXdXdXdXdXdXdXdXdXdXdXdXdXdXdXdXdXdXdXdXdXdXdXdXdXdXdXdXdXdXdX",
"dXdXdXdXdXdXdXdXdXdXdXdXdXdXdXdXdXdXdXdXdXdXdXdXdXdXdXdXdXdXdXdXdXdXdXdXdXdXdXdXdXdXdXdXdXdXdXdX",
"dXdXdXdXdXdXdXdXdXdXaXdXdXaXdXdXdXaXdXdXdXdXdXpXwXdX5XdXdXuXdXuXdXsXdXuXdXdXfXdXdXdXdXdXdXdXdXdX",
"dXdXdXdXdXdXdXdXdXdXdXyXsXdXdXdXdXdXdXaXuXuXdXdXdX3XdXdXiX0XdXiXdXsXdXdXdXiX6XdXdXdXdXdXdXdXdXdX",
"dXdXdXdXdXdXdXdXdXuXdXdXuX5XdXdXsXdXuXdXdXdXsX6X6XiXdXdXsXdX6XdXdXuXfXfXdXdXdXdXdXdXdXdXdXdXdXdX",
"dXdXdXdXdXdXdXdXdXdXdXaXdXdXdX6X5XdXaXdXdX0XdXdXdXdXdXdXdXdXsXdXdXdXdXfXaXdXdX0XdXdXdXdXdXdXdXdX",
"dXdXdXdXdXdXdXdXdXdXdX6XdXdX&XdXdX&X0.1 ( G R 4 G ( s D dXtXdXdX6XdXdXdXdXsXdXaXdXdXdXdXdXdXdXdX",
"dXdXdXdXdXdXdXdXsXdXuXdXdX3XdX8X4 ' H R _ G ( ' _ J 0.! ` ' uXdXdXdXtXdXdXdXdXdXdXdXdXdXdXdXdXdX",
"dXdXdXdXdXdXdXdXsXdX6XsX8XdXdX! U ) ) ( R R ' 0.' q.' i.! ( ` Q 6XdXsXyXdXsXuXsXdXdXdXdXdXdXdXdX",
"dXdXdXdXdXdXdXdXdX8XdXiXdX8X) J ) G ) ) ) ,.,.,.,.*.0.0.0.e.8.0.8.5XdXdXdXdXdXdXdXdXdXdXdXdXdXdX",
"dXdXdXdXdXdXdXdXdXaXdXdXdXH ! J G F c s c G ) ' ) *.q.0.*.0.q.e.( ! dXsXdXdX8XdXdXdXdXdXdXdXdXdX",
"dXdXdXdXdXdXdXdXdXdXdXsXH ! s U U U R ` ' $.*.*.*.` ) ' q.q.*.) 0.I H dXuXdXdXdXdXdXdXdXdXdXdXdX",
"dXdXdXdXdXdXdXdXdXdXuXdX> ! F U U ) -.*.q.q.9.8.*.q.*.) ) <.<.<.r.$.q.) pX7XdXiXdXdXdXdXdXdXdXdX",
"dXdXdXdXdXdXdXdXdXiXsXH U ) *.U ) ) ) ) ` &.9.q.$.r.r._ T $.1.$.+.r.L v pXpXpX4XdXdXdXdXdXdXdXdX",
"dXdXdXdXdXdXdXdXdXdXs s J 4 F q.&.` ) ~ ) &.9.e.q.$.$.<.$.B T 3.M +.1.T b pXpXpXpXdXdXdXdXdXdXdX",
"dXdXdXdXdXdXdXdXsXiX( 4 ( q.) F ) ) ) ` ` ` &.&.t.) $.y.W e y.).oXXXXXqX).x.rXpXpXpXdXdXdXdXdXdX",
"dXdXdXdXdXdXdXdXdXdX  ' U D ' ' ~ ) ` ` ` ` ~ ~ *.,.<.<.T W G.XXg.Z.k.g.Z.x.rXpXpXpXdXdXdXdXdXdX",
"dXdXdXdXdXdXdXdX6XdXF 1 ) ` ( ` &.&.` ^ ^ ^ ` ) H $.$.B 1.x.G.k.e M e x @ r.pXpXpXdXdXdXdXdXdXdX",
"dXdXdXdXdXdXdXdXdX1 J s ! 8.` ) ) ) ^ ^ ` ` ( ( _ _ l T %Xx.e e T = G c X dXdXfXdXdXdXdXdXdXdXdX",
"dXdXdXdXdXdXdXdXdXO J U F U ` U ) ) ` ` ` ` ` ) R 1.1.- H.- x P ; R U ' 0.tXdXdXdXdXdXdXdXdXdXdX",
"dXdXdXdXdXdXdXdXdX< 4 J D ` t.&.) ) ` ` ` ` ` ) 1.@ C >Xg.} n  .E -.) U < dXuXdXdXdXdXdXdXdXdXdX",
"dXdXdXdXdXdXdXdXyX( H F s H ! D ) ) ) ` ` ) ) E T C C {.z & [ & r . Y X s dXsXdXdXdXdXdXdXdXdXdX",
"dXdXdXdXdXdXdXdXJ o D D H H ( e.) ) ` ` ` ) -.o.@.z #XJ.y 6.h.a.u %.E s.<XuXdXdXdXdXdXdXdXdXdXdX",
"dXdXdXdXdXdXdXdXO J U Z H 4 < J ) ) ) ) ) ) E @.m ,XP.N.M.B.P.OX=XN t.eXpXdXdXuXdXdXdXdXdXdXdXdX",
"dXdXdXdXdXdXdXdXD ! 4 4 J J H J U U U U U L P V y ].V.M.I.[.-X|. X!.n eXpX<XiXdXdXdXdXdXdXdXdXdX",
"dXdXdXdXdXdXdXdXZ F 4 U F 4 F s c c v v v d g u -XJ.M.7.n.5.5.'.+XC.eXpXpXeXpXdXdXdXdXdXdXdXdXdX",
"dXdXdXdXdXdXdXdX4 J 1 J Z s J D c F F i K P q [ [.M.V.7 7 7 9 B.+XC.qXrXpXpXiXdXdXdXdXdXdXdXdXdX",
"dXdXdXdXdXdXdXdX$ U D 3 U 4 J J s c I F K j  .C.D.M.[.7.F.9 m.0 =Xd.eXpXeXpXdX4XdXdXdXdXdXdXdXdX",
"dXdXdXdXdXdXdXdXdXD ( H 4 < ) < G s F K d r O.E.a.J.OX6 L.5.7 4.}.S.2XpXwXpXdXdXdXdXdXdXdXdXdXdX",
"dXdXdXdXdXdXdXdXdX< < U U F J F U s s F K a O.K.y ~. X@Xt B.4.!.;XY pXpXpXpXdXaXdXdXdXdXdXdXdXdX",
"dXdXdXdXdXdXdXdXdXdXF > s H $ J F s A d Y ..2.H.w [ #.a.E.=XQ.A.Y E d pXdXdXuXdXdXdXdXdXdXdXdXdX",
"dXdXdXdXdXdXdXdXdX6XdX! ( F D D s H U d d K %.S.m #.[ p. .o.r.=.t.H 1 dXdXdXdXdXdXdXdXdXdXdXdXdX",
"dXdXdXdXdXdXdXdXiXdXuX6X1 $ ' s D H U d a f N j.j.8 p.@.o.d.=.*.s ,.J iX6XfXdXdXdXdXdXdXdXdXdXdX",
"dXdXdXdXdXdXdXdXsXdXdXdXdXsX> s D s s D Y v a y.z.j.2.2.3.Y r.=.-.1 dXdXdXdXdXdXdXdXdXdXdXdXdXdX",
"dXdXdXdXdXdXdXdXdXdXdXdXdXdXdXdX2 * R 5 U s F K r.z.q O.;.O.;.P ) <XdXdXdXdXdXdXdXdXdXdXdXdXdXdX",
"dXdXdXdXdXdXdXdXdXdXdXdXdXdXdXdXdXpX2 X   O     r ;.f.8 0 ;.| u 9XdXdXsXdXdXdXdXdXdXdXdXdXdXdXdX",
"dXdXdXdXdXdXdXdXdXdXdXdXdXdXdXdXdXiX    D F s E a g #.4.h 6 t qXpXdX5XaXdXsXdXdXdXdXdXdXdXdXdXdX",
"dXdXdXdXdXdXdXdXdXdXdXdXdXdXdXdXuX  O ( .   i . N O.O.].:.X.{ h 9XdXdXdXdXsXdXsXdXdXdXdXdXdXdXdX",
"dXdXdXdXdXdXdXdXdXdXdXdXdXdXdXdXdXO s   ` T.W.T.+ g m :XQ.0 7 u pXdXdXdXaXdXdXaXdXdXdXdXdXdXdXdX",
"dXdXdXdXdXdXdXdXdXdXdXdXdXdXdXdXdXO I . R./.;X;XW.8 h ].'.t | u pX8XaXaXaXdXdXdXdXdXdXdXdXdXdXdX",
"dXdXdXdXdXdXdXdXdXdXdXdXdXdXdXdXdX  4 $ ^.% . =.A.q w B.2X#.0 w pXdXdXdXdXsX5XdXdXdXdXdXdXdXdXdX",
"dXdXdXdXdXdXdXdXdXdXdXdXdXdXdXdXdX  )   1 `.7X/.a N q 3.@X>.} V rXiXdXaXdXdXsXdXdXdXdXdXdXdXdXdX",
"dXdXdXdXdXdXdXdXdXdXdXdXdXdXdXdXsX  U   0.5   w.x.e T q #X} >.C pXdXdXdXdXdXdXdXdXdXdXdXdXdXdXdX",
"dXdXdXdXdXdXdXdXdXdXdXdXdXdXdXdXdX  H   D 4 0.i.c _ x l =XM 2.M pXdXdXdXdXdXdXdXdXdXdXdXdXdXdXdX",
"dXdXdXdXdXdXdXdXdXdXdXdXdXdXdXdXfX* , k ( U.(.&X,.b R B 1X= M rXpXdXdXdXdXdXdXdXdXdXdXdXdXdXdXdX",
"dXdXdXdXdXdXdXdXdXdXdXdXdXdXdXdXfX  ( ] / ] Y.b.4X2 E p %X+.T pXdXdXdXdXdXdXdXdXdXdXdXdXdXdXdXdX",
"dXdXdXdXdXdXdXdXdXdXdXdXdXdXdXdXdX6X  4   D S c.l.^.w.X . L p pXdXdXdXdXdXdXdXdXdXdXdXdXdXdXdXdX",
"dXdXdXdXdXdXdXdXdXdXdXdXdXdXdXdX3XdX  F 4 < H 8.c.' &X. U . sXdXdXdXdXdXdXdXdXdXdXdXdXdXdXdXdXdX",
"dXdXdXdXdXdXdXdXdXdXdXdXdXdXdXdXdXiXX U 4 F   D i.o $X# _.. sXuXdXdXdXdXdXdXdXdXdXdXdXdXdXdXdXdX",
"dXdXdXdXdXdXdXdXdXdXdXdXdXdXdXdXdX  K I s Z F . # A.9.# $X+ sXdXdXdXdXdXdXdXdXdXdXdXdXdXdXdXdXdX",
"dXdXdXdXdXdXdXdXdXdXdXdXdXdXdXdXyXo D U D H F D . % . *Xd.. eXsXdXuXdXaXdXdXdXaXdXdXdXdXdXdXdXdX",
"dXdXdXdXdXdXdXdXdXdXdXdXdXdXdXdXdXO F s U U F ) F + . % + d a pXdXdXdXsXdXaXdXdXdXdXdXdXdXdXdXdX",
"dXdXdXdXdXdXdXdXdXdXdXdXdXdXdXdXsX  J 1 ) ` F K K Y Y A.N %.. ; pXwXdXdXdXaXsX6XdXdXdXdXdXdXdXdX",
"dXdXdXdXdXdXdXdXdXdXdXdXdXdXdXdXdXo $ u.K % ` Y U F $.T.% =.E K dXdXuXaXdXdXdXdXdXdXdXdXdXdXdXdX",
"dXdXdXdXdXdXdXdXdXdXdXdXdXdXdXdXdXdX    . % . < + . + W.Y . i s wXdXdXdXsXuXaX6XdXdXdXdXdXdXdXdX",
"dXdXdXdXdXdXdXdXdXdXdXdXdXdXdXdXiXdXdXs s ~ 1 ; 1 % . F f ) % r.s.&XaXdXdXdXdXdXdXdXdXdXdXdXdXdX",
"dXdXdXdXdXdXdXdXdXdXdXdXdXdXdXdXdXsX< ) D $.$.) s pXH F 1 % ; D c.dXdXdXsXaXuXdXdXdXdXdXdXdXdXdX",
"dXdXdXdXdXdXdXdXdXdXdXdXdXdXdXdXdXuXI s U *.U c   dXsXsXX < U $ e.dXuX6XdXdXsXdXdXdXdXdXdXdXdXdX",
"dXdXdXdXdXdXdXdXdXdXdXdXdXdXdXdXdXiXF 1 4 J Y.c.sXdXdXiX  ! 4 < 4 dXdXdXdXdX6XdXdXdXdXdXdXdXdXdX",
"dXdXdXdXdXdXdXdXdXdXdXdXdXdXdXdXdX8Xs s H 4 ^.u.dXdXdXdXdX< O s F O dXdX3XdXdXdXdXdXdXdXdXdXdXdX",
"dXdXdXdXdXdXdXdXdXdXdXdXdXdXdXdXiX  *.I $ $ s.) 5XdXyXdXuXJ 4 4 < 4 aXdXdXuXsXsXdXdXdXdXdXdXdXdX",
"dXdXdXdXdXdXdXdXdXdXdXdXdXdXdXdX8XI s ; I % s dXdX5XdXdX5Xo 3 5 < J o 4 sXdXdXdXdXdXdXdXdXdXdXdX",
"dXdXdXdXdXdXdXdXdXdXdXdXdXdXdXdXc % 1 H . sXsXiXaXdXsXdXdXo 5 J 4 o u.4 aXdXaXdXdXdXdXdXdXdXdXdX",
"dXdXdXdXdXdXdXdXdXdXdXdXdXdXdXdX4 1 f 1 U 6XdXdXdXdXdXuXdXdX    5 J sX5XdXaX6XdXdXdXdXdXdXdXdXdX",
"dXdXdXdXdXdXdXdXdXdXdXdXdXdXdXdXc ` ~ i I H uXdXaXdXaXdXsX3XdXdXdXaX6XdXdXdXdXsXdXdXdXdXdXdXdXdX",
"dXdXdXdXdXdXdXdXdXdXdXdXdXdXdXdXdXG A.Y.s v.dXaXdX3XdXaXdXdXdXsXsXdXdXdXdXsXdXdXdXdXdXdXdXdXdXdX",
"dXdXdXdXdXdXdXdXdXdXdXdXdXdXdXdXdXdXdXdXdXdXdXdXdXdXdXdXdXdXdXdXdXdXdXdXdXdXdXdXdXdXdXdXdXdXdXdX",
"dXdXdXdXdXdXdXdXdXdXdXdXdXdXdXdXdXdXdXdXdXdXdXdXdXdXdXdXdXdXdXdXdXdXdXdXdXdXdXdXdXdXdXdXdXdXdXdX"
};
